<svg width="59" height="59" viewBox="0 0 59 59" fill="none" xmlns="http://www.w3.org/2000/svg">
<path d="M52.6097 0H5.44239C2.44907 0 0 2.44907 0 5.44239V52.6097C0 55.6031 2.44907 58.0521 5.44239 58.0521H52.6097C55.6031 58.0521 58.0521 55.6031 58.0521 52.6097V5.44239C58.0521 2.44907 55.6031 0 52.6097 0ZM39.9108 9.07065C39.9108 8.07287 40.7272 7.25652 41.725 7.25652H48.9815C49.9793 7.25652 50.7956 8.07287 50.7956 9.07065V16.3272C50.7956 17.3249 49.9793 18.1413 48.9815 18.1413H41.725C40.7272 18.1413 39.9108 17.3249 39.9108 16.3272V9.07065ZM29.0261 18.1413C35.0345 18.1413 39.9108 23.0177 39.9108 29.0261C39.9108 35.0345 35.0345 39.9108 29.0261 39.9108C23.0177 39.9108 18.1413 35.0345 18.1413 29.0261C18.1413 23.0177 23.0177 18.1413 29.0261 18.1413ZM50.7956 48.9815C50.7956 49.9793 49.9793 50.7956 48.9815 50.7956H9.07065C8.07287 50.7956 7.25652 49.9793 7.25652 48.9815V25.3978H11.2476C11.0081 26.5661 10.8848 27.7779 10.8848 29.0261C10.8848 39.0473 19.0012 47.1674 29.0261 47.1674C39.0509 47.1674 47.1674 39.0473 47.1674 29.0261C47.1674 27.7779 47.044 26.5661 46.8045 25.3978H50.7956V48.9815Z" fill="white"/>
</svg>
