<svg width="60" height="59" viewBox="0 0 60 59" fill="none" xmlns="http://www.w3.org/2000/svg">
<path d="M50.5795 8.47756C45.1211 3.00817 37.8614 0 30.1276 0C14.1971 0 1.23101 12.9661 1.23101 28.9076C1.23101 34.0014 2.56554 38.9822 5.0924 43.3577L0.990356 58.3402L16.3156 54.3184C20.5416 56.6192 25.2963 57.8407 30.124 57.8407H30.1349C46.0654 57.8407 59.0425 44.8745 59.0425 28.9331C59.0425 21.2067 56.0343 13.9506 50.5759 8.4812L50.5795 8.47756ZM30.1349 52.962C25.8178 52.962 21.5881 51.7988 17.8981 49.611L17.0193 49.086L7.92555 51.467L10.354 42.6029L9.78514 41.6914C7.36767 37.8737 6.10606 33.4545 6.10606 28.9076C6.10606 15.657 16.8844 4.87505 30.1495 4.87505C36.5633 4.87505 42.6051 7.38368 47.1374 11.916C51.6734 16.4629 54.1674 22.4901 54.1674 28.9149C54.1565 42.1763 43.3781 52.962 30.1349 52.962ZM43.3089 34.9604C42.5906 34.5957 39.0354 32.8528 38.3755 32.6122C37.7155 32.3715 37.2342 32.2475 36.7456 32.9768C36.2679 33.6951 34.8787 35.325 34.4557 35.8136C34.0328 36.2912 33.6135 36.3605 32.8951 35.9959C32.1768 35.6313 29.8396 34.8692 27.083 32.408C24.939 30.4937 23.4841 28.1236 23.0612 27.4053C22.6382 26.687 23.0138 26.2895 23.382 25.9359C23.7139 25.615 24.1004 25.0936 24.465 24.6706C24.8296 24.2476 24.9426 23.9523 25.1833 23.4637C25.424 22.986 25.3073 22.5631 25.125 22.1984C24.9426 21.8338 23.4951 18.2787 22.9044 16.8311C22.3246 15.4164 21.7194 15.6133 21.2745 15.5878C20.8515 15.5659 20.3739 15.5659 19.8962 15.5659C19.4186 15.5659 18.631 15.7482 17.971 16.4665C17.311 17.1848 15.4405 18.9387 15.4405 22.4938C15.4405 26.0489 18.0257 29.48 18.3903 29.9686C18.7549 30.4463 23.4841 37.7497 30.7293 40.8746C32.4503 41.6148 33.7958 42.0596 34.8422 42.4024C36.5742 42.9493 38.1458 42.8691 39.3891 42.6868C40.7784 42.4826 43.6626 40.9439 44.2678 39.2557C44.8731 37.5674 44.8731 36.1235 44.6908 35.8245C44.5194 35.5037 44.0418 35.325 43.3125 34.9567L43.3089 34.9604Z" fill="white"/>
</svg>
